<svg fill="#ec1c24" xmlns="http://www.w3.org/2000/svg" viewBox="0 0 928 928">
    <path d="M240,208.8c38.2,1.6,78.3,9.7,111.1,30.2c-17.5,68.7,42.8,107.9,103.9,106c60.5-1.9,105.9,3.8,163.9,20.2c49.9,14.1,104.1,2.4,120.1-54.7c198,156.3,48.5,383.4-42.8,553.5H653c0-30.4,0-60.8,0-91.2c-86.7,16.6-166.9,24.1-255.2,13.2c-11.3,26-22.6,52.1-34,78.1H322c0-35.1,0-70.3,0-105.4c-65.9-39.7-122.7-82.8-154.6-155.7c-18.5-42.3-40-48.3-81.4-69.6V477c20.4,1.4,40.7,1.1,61.1,1.2c28.3-79.4,68.9-133.8,132.1-188.9c-13-26.6-26-53.2-39-79.8 M225.9,144c-105,0-55.4,67.6-25.9,128.2c-45,39.2-79,87.3-98,140.8c-36.3,0.7-67.5-7-80,33.1c-7,22.6-7.1,85.7,0,108.4c12.3,39.4,65.3,45.9,87.6,78.1c45.2,65.2,77,120,148.4,162.5c0,57.7-18.9,128.1,54.4,132.9c21.1,1.4,63.7,7.7,83.7-2.6c23.5-12.2,31.4-47.3,41.3-70.1c50.3,6.2,101.9,4.5,151.6-5.1c0,71.4,25.6,80.3,92.9,77.8c39.8-1.4,50.5-2.4,74.3-40.9c28.9-46.6,53.1-97.6,77.7-146.6c50.4-100.6,91.1-201.3,57.9-314.6c-30.6-104.3-112.2-181.7-210.8-223.2c-13.3,20.1-31.2,37.2-52.4,49c19,6.3,81.2,36,32.6,55.9C641,316,567.3,282,540.6,279.4c-29.2-2.8-82.2,13-105.8,3.2c-43.8-18.1-11.5-44.7,21.9-47.9c-18.9-16.3-34.3-38-43-61.5C352.7,183.4,292.1,144,225.9,144L225.9,144z"/>
	<path fill="#8bc53f" d="M555.3,64c15.1,0,29.4,5.9,40.1,16.6c10.7,10.7,16.5,24.9,16.5,40v0v0c0,12.2-3.8,23.8-11,33.6c-8.5,11.6-20.9,19.5-34.9,22.1l-0.2,0l-0.2,0c-3.2,0.6-6.6,0.9-10.2,0.9c-7.2,0-14.2-1.3-20.9-3.9c-13.8-5.5-25.1-16.4-31-29.9l-0.1-0.1l-0.1-0.1c-3.1-7.1-4.7-14.7-4.7-22.7C498.6,89.4,524,64,555.3,64 M555.3,0c-66.7,0-120.7,54-120.7,120.7c0,17.3,3.6,33.7,10.2,48.6c12.7,29,36.6,52,66.1,63.7c13.7,5.4,28.7,8.4,44.4,8.4c7.7,0,15.2-0.7,22.4-2.1c30.6-5.7,57.1-23,74.8-47.1c14.7-20,23.4-44.7,23.4-71.5C676,54,621.9,0,555.3,0L555.3,0z"/>
	<path d="M263.7,376c-24.9,0-45,20.1-45,45c0,24.9,20.1,45,45,45s45-20.1,45-45C308.7,396.1,288.6,376,263.7,376L263.7,376z"/>
</svg>
