<svg xmlns="http://www.w3.org/2000/svg" viewBox="0 0 282.18 231.26"><path d="M122.68,259.68c-2.72.88,0,5.91-3.26,6.37-3.58.51-7.24,3.18-3.85,6.65,2.75,2.82,7.2,0,8.38-3.85S125,258.91,122.68,259.68Z" transform="translate(-29.72 -42.59)" fill="#8bc53f"/><path d="M158.29,228.49c-.86-8.84-6.26-15-11.48-28.19-4-10.12,7.89-23.81,4.12-29.29-4.35-6.33-28.18-2-42.1,20.73-11.95,19.48-12.49,33.54-9.63,44.39,3.36,12.74,12.3,20,28.26,20C143,256.14,160,246.64,158.29,228.49Z" transform="translate(-29.72 -42.59)" fill="#ec1c24"/><path d="M132.92,260.08c2.43,1-.45,5.44,2.5,6.12,3.25.75,6.41,3.49,3,6.42-2.75,2.38-6.63-.59-7.41-4.2S130.8,259.19,132.92,260.08Z" transform="translate(-29.72 -42.59)" fill="#8bc53f"/><path d="M153.94,230.7c.24-5.35-6.26-11.45-21.83-12-16.43-.54-24.69,3.86-27.16,12s4.78,17.51,19.52,17.13S153.48,241.19,153.94,230.7Z" transform="translate(-29.72 -42.59)" fill="#fff"/><path d="M132.11,218.74c-11.49-.38-19,1.66-23.28,5.68a33.82,33.82,0,0,1,13.95-4.37c7.87-.46,19.75.08,25.15,3.94,4.65,3.32,5.59,5.89,5.91,7.88.06-.38.09-.77.11-1.16C154.17,225.35,147.68,219.25,132.11,218.74Z" transform="translate(-29.72 -42.59)" fill="#e5e3e5"/><circle cx="92.35" cy="187.83" r="2.85" fill="#221f1f"/><circle cx="113.04" cy="187.83" r="2.85" fill="#221f1f"/><path d="M158.29,228.49c-.86-8.84-6.26-15-11.48-28.19-4-10.06,7.73-23.64,4.18-29.19a151.59,151.59,0,0,1-6.33,16.3,55,55,0,0,1-11.5,16.18s6.31.09,13.32,7.23c5,5.14,10.86,13.28,11.05,19.59.06,2.12.06,4.54,0,6.85A23.69,23.69,0,0,0,158.29,228.49Z" transform="translate(-29.72 -42.59)" fill="#c3161c"/><path d="M170.82,213.63c.86,8.84,6.26,15,11.48,28.19,4,10.12-7.89,23.81-4.12,29.29,4.35,6.33,28.18,2,42.1-20.73,11.95-19.48,12.48-33.54,9.63-44.39-3.35-12.74-12.3-20-28.26-20C186.12,186,169.06,195.48,170.82,213.63Z" transform="translate(-29.72 -42.59)" fill="#ec1c24"/><path d="M175.16,211.42c-.24,5.35,6.26,11.45,21.83,12,16.43.54,24.69-3.86,27.16-12s-4.78-17.51-19.52-17.13S175.63,200.93,175.16,211.42Z" transform="translate(-29.72 -42.59)" fill="#fff"/><path d="M198.69,181.51c-3.2.24-2.53-6.13-6.1-5.23-3.93,1-8.87-.22-6.83-5.26,1.66-4.1,7.49-3,10.34.42S201.47,181.3,198.69,181.51Z" transform="translate(-29.72 -42.59)" fill="#8bc53f"/><path d="M205.63,181c2.26-.89-.29-5,2.44-5.57,3-.62,6-3.07,2.93-5.84-2.48-2.25-6.11.4-6.91,3.7S203.66,181.8,205.63,181Z" transform="translate(-29.72 -42.59)" fill="#8bc53f"/><path d="M204.63,195.7c12.4-.32,19.5,6.29,20,13.22.46-7.41-6.73-15-20-14.63-14.73.39-29,6.63-29.47,17.13a6.42,6.42,0,0,0,0,1C176,202.18,190.09,196.08,204.63,195.7Z" transform="translate(-29.72 -42.59)" fill="#e5e3e5"/><circle cx="185.41" cy="166.27" r="2.85" fill="#221f1f"/><circle cx="156.64" cy="166.27" r="2.85" fill="#221f1f"/><path d="M170.82,213.63c.86,8.84,6.26,15,11.48,28.19,4,10.06-7.73,23.63-4.18,29.19a151.35,151.35,0,0,1,6.33-16.3,55,55,0,0,1,11.5-16.18s-6.31-.09-13.32-7.23c-5-5.14-10.86-13.28-11.05-19.59-.07-2.12-.06-4.54,0-6.85A23.74,23.74,0,0,0,170.82,213.63Z" transform="translate(-29.72 -42.59)" fill="#c3161c"/><path d="M258.58,176.46c-3.68-2,12.54-20.36.36-26.64-11.16-5.76-163,4.74-193.86-3-28.42-7.11-45.12-38-29.18-66.34C66.73,25.73,222.55,43.32,260.27,54c31.54,8.9,49.19,26.11,51.35,46.28C316.17,142.74,262,178.31,258.58,176.46Z" transform="translate(-29.72 -42.59)" fill="#ec1c24"/><path d="M58.3,89.69c-.29-8.26,2.12-8.58,7.45-7.79,3.89.58,4.92,5,4.92,5s1.37-4.58,8.59-5,14.66,3,15,11.79.16,13.11.64,18.93c.72,8.81-3.4,9.27-7.81,8.95-4.1-.3-4.73-4.52-4.39-9a100.69,100.69,0,0,0,0-14.88C81.89,91,70.55,91.41,70.33,99c-.29,9.5-.49,8.38.23,16.95.69,8.13-12.27,8.13-12.27,1.15C58.28,106.16,58.37,91.58,58.3,89.69Z" transform="translate(-29.72 -42.59)" fill="#fff"/><path d="M125.68,108.85c-1.86,1.7-3.63,3.53-7,3.89-7.65.81-9-3.67-8.91-6.46.07-1.76,3.7-.63,11.43-1.19,8.66-.63,11.5-4.15,12.39-9.05s-1.33-14.25-14.47-14.81-18.38,7.14-19.6,15c-.65,4.19-2.33,12.68,3.91,20,7,8.25,24,7.22,29.71,0C138.48,109.52,130,104.91,125.68,108.85Zm-6.74-19.71c6.11,1.53,4.85,8.09,1.4,9.15a23.08,23.08,0,0,1-10.8.14C109.44,95.76,111.37,87.25,118.94,89.14Z" transform="translate(-29.72 -42.59)" fill="#fff"/><path d="M168.66,83.27C157.8,77.46,151,85.8,151,85.8a6.45,6.45,0,0,0-7.68-4.39c-6,1.2-5.21,4.06-4.61,14.15.19,3.18.33,23.48.22,29.62s.34,8.35,4.17,9c5.16.88,7.35-1.21,7.68-5.82a63.9,63.9,0,0,0-.44-10.53s2.09,3.08,10.36,3c10.11-.14,12.57-6.72,15-12S179.52,89.09,168.66,83.27Zm-6.46,26c-2.42,1.76-9.23,2-11.21-3s-1.24-11.14,2.84-13.4c3.31-1.84,7.59-2.61,10.44,1.89S166.44,106.19,162.2,109.27Z" transform="translate(-29.72 -42.59)" fill="#fff"/><path d="M281.35,89.45c.13-5.81-.55-6.94-3.72-8.55-4.5-2.3-8.55,1.3-7.62,7.44s1.22,19.48,1,26.73,11.64,6.55,11.42.23C282.18,107.11,281.16,97.63,281.35,89.45Z" transform="translate(-29.72 -42.59)" fill="#fff"/><path d="M266.4,103.65c-.93-9.11-9.48-11.78-19-11.13a24.6,24.6,0,0,0-5.5,1.16c-.06-1.27-.12-2.48-.2-3.64-.4-5.79.43-7.65-4.41-9.14s-8.55,1.3-7.62,7.44,1.22,19.48,1,26.73c-.17,6.41,10.09,6.69,12.09,2.32a26.23,26.23,0,0,0,11.6,2.89C263.2,120.07,267.33,112.76,266.4,103.65Zm-12.47,8.17c-6.86.7-10-1.92-10.66-4.19-.46-1.5-.08-6.08-.08-6.08s7-1.9,11.91.57C259.12,104.14,259.14,111.29,253.93,111.83Z" transform="translate(-29.72 -42.59)" fill="#fff"/><path d="M225.23,112.37c-1.38-1.4-3.15-1.8-6.1-1.8a109.48,109.48,0,0,0,.51-19.6c-.7-8-2-9.91-6-10-4.44-.05-6,2-6.28,6.79-.29,4.39.32,11.67-.13,16.48-.54,5.88-5.76,7.36-10.1,5.32s-2.76-11-2.13-17.68.42-10.58-5.45-10.9-6.1,5.94-6.7,10.9c-.26,2.17-.73,7.22-.07,17.28.6,9.21,8,12,13,12.16h0a36.86,36.86,0,0,0,14.63-1.09c2.71-.83,5.42.23,5.58,2.28a13.64,13.64,0,0,1,0,1.85c0,3.75,1.6,5.13,5.42,5.13,3.53,0,5.6-2.19,5.6-6.58v-3.43C227,116.77,227,114.14,225.23,112.37Z" transform="translate(-29.72 -42.59)" fill="#fff"/><path d="M58.43,89.81c-.29-8.24,2.11-8.57,7.44-7.78,3.89.58,4.92,5,4.92,5s1.37-4.58,8.57-5,14.64,3,15,11.78.15,13.09.63,18.91c.72,8.79-3.39,9.26-7.79,8.94-4.09-.3-4.73-4.51-4.39-9a100.52,100.52,0,0,0,0-14.87c-.8-6.75-12.12-6.29-12.35,1.26-.29,9.49-.49,8.37.23,16.92.69,8.12-12.25,8.12-12.25,1.14C58.41,106.25,58.5,91.69,58.43,89.81Z" transform="translate(-29.72 -42.59)" fill="#fff"/><path d="M125.72,108.94c-1.86,1.7-3.62,3.53-7,3.89-7.64.81-9-3.67-8.89-6.45.07-1.76,3.69-.63,11.42-1.19,8.65-.63,11.49-4.15,12.38-9s-1.33-14.23-14.46-14.79-18.36,7.13-19.58,15c-.65,4.18-2.33,12.66,3.9,20,7,8.24,24,7.21,29.67,0C138.5,109.61,130,105,125.72,108.94ZM119,89.26c6.11,1.53,4.84,8.08,1.4,9.13a23,23,0,0,1-10.78.14C109.49,95.86,111.43,87.37,119,89.26Z" transform="translate(-29.72 -42.59)" fill="#fff"/><path d="M168.64,83.4C157.79,77.59,151,85.92,151,85.92a6.45,6.45,0,0,0-7.67-4.38c-6,1.2-5.2,4.06-4.6,14.13.19,3.17.33,23.45.22,29.58s.34,8.33,4.16,9c5.15.87,7.34-1.21,7.67-5.81a63.8,63.8,0,0,0-.44-10.52s2.09,3.08,10.35,3c10.1-.14,12.55-6.71,15-12S179.49,89.2,168.64,83.4Zm-6.45,26c-2.41,1.75-9.22,2-11.19-3S149.76,95.28,153.83,93c3.3-1.84,7.58-2.61,10.43,1.88S166.43,106.28,162.19,109.36Z" transform="translate(-29.72 -42.59)" fill="#fff"/><path d="M281.18,89.57c.13-5.8-.55-6.93-3.71-8.54-4.5-2.29-8.54,1.3-7.61,7.43s1.22,19.46,1,26.7,11.63,6.54,11.4.23C282,107.2,281,97.73,281.18,89.57Z" transform="translate(-29.72 -42.59)" fill="#fff"/><path d="M266.25,103.75c-.93-9.1-9.46-11.76-19-11.12a24.74,24.74,0,0,0-5.49,1.15c-.06-1.27-.12-2.48-.2-3.63-.4-5.79.42-7.64-4.4-9.13s-8.54,1.3-7.61,7.43,1.21,19.46,1,26.7c-.17,6.4,10.07,6.68,12.08,2.32a26.22,26.22,0,0,0,11.58,2.89C263.06,120.14,267.17,112.84,266.25,103.75Zm-12.45,8.16c-6.85.7-9.94-1.92-10.64-4.18-.46-1.49-.08-6.07-.08-6.07s7-1.9,11.9.57C259,104.23,259,111.38,253.79,111.91Z" transform="translate(-29.72 -42.59)" fill="#fff"/><path d="M225.14,112.46c-1.38-1.4-3.15-1.8-6.09-1.8a109.28,109.28,0,0,0,.51-19.58c-.7-8-2-9.9-6-9.95-4.44-.05-6,2-6.27,6.78-.29,4.39.32,11.65-.13,16.46-.54,5.88-5.75,7.35-10.09,5.31s-2.75-11-2.12-17.66.42-10.57-5.44-10.88S183.4,87.08,182.8,92c-.26,2.17-.73,7.21-.07,17.25.6,9.19,8,12,13,12.14h0a36.83,36.83,0,0,0,14.61-1.08c2.71-.83,5.42.23,5.57,2.27a13.53,13.53,0,0,1,0,1.84c0,3.74,1.6,5.12,5.42,5.12,3.52,0,5.59-2.19,5.59-6.57v-3.43C226.89,116.85,226.89,114.23,225.14,112.46Z" transform="translate(-29.72 -42.59)" fill="#fff"/><path d="M296.73,52.1a5.45,5.45,0,0,1,1.6,4,5.35,5.35,0,0,1-1.66,4,5.54,5.54,0,0,1-4,1.65A5.68,5.68,0,0,1,287,56.06a5.7,5.7,0,0,1,.82-2.94,5.22,5.22,0,0,1,4.8-2.72A5.47,5.47,0,0,1,296.73,52.1Zm-7.32.57A4.61,4.61,0,0,0,288,56a4.75,4.75,0,0,0,4.69,4.72A4.72,4.72,0,0,0,296,59.39a4.35,4.35,0,0,0,1.38-3.25,4.66,4.66,0,0,0-1.34-3.39,4.54,4.54,0,0,0-3.37-1.41A4.46,4.46,0,0,0,289.41,52.67Zm3.39.14q2.67,0,2.67,1.8a1.59,1.59,0,0,1-1.37,1.66l1.4,2.8H293.8l-1.2-2.56h-.75v2.56h-1.52V52.81Zm-.93,2.78h.75q1.29,0,1.29-.89t-1.37-.93h-.67Z" transform="translate(-29.72 -42.59)" fill="#ec1c24"/></svg>
