<svg xmlns="http://www.w3.org/2000/svg" viewBox="0 0 50.6 87.9" ><path fill="#EC1C24" d="M0.1 37.8c0.7 7.4 5.2 12.5 9.6 23.5c3.3 8.4-6.6 19.9-3.4 24.4c3.6 5.3 23.5 1.6 35.1-17.3 c10-16.3 10.4-28 8-37c-2.8-10.6-10.3-16.7-23.6-16.7C12.9 14.7-1.4 22.6 0.1 37.8z"/><path fill="#FFFFFF" d="M3.7 35.9C3.5 40.4 9 45.5 22 45.9c13.7 0.4 20.6-3.2 22.7-10c2.1-6.8-4-14.6-16.3-14.3 C16 21.9 4.1 27.2 3.7 35.9z"/><path fill="#8BC53F" d="M23.4 10.9c-2.7 0.2-2.1-5.1-5.1-4.4c-3.3 0.8-7.4-0.2-5.7-4.4c1.4-3.4 6.3-2.5 8.6 0.4 C23.6 5.4 25.7 10.8 23.4 10.9z"/><path fill="#8BC53F" d="M29.2 10.5c1.9-0.7-0.2-4.2 2-4.7c2.5-0.5 5-2.6 2.4-4.9c-2.1-1.9-5.1 0.3-5.8 3.1 C27.2 6.9 27.5 11.2 29.2 10.5z"/><path fill="#E5E3E5" d="M28.3 22.8c10.3-0.3 16.3 5.3 16.7 11c0.4-6.2-5.6-12.5-16.7-12.2C16 21.9 4.1 27.2 3.7 35.9 c0 0.3 0 0.6 0 0.8C4.4 28.2 16.2 23.1 28.3 22.8z"/><path class="st4" d="M34.7 33.8c0-1.3 1.1-2.4 2.4-2.4c1.3 0 2.4 1.1 2.4 2.4c0 1.3-1.1 2.4-2.4 2.4C35.8 36.1 34.7 35.1 34.7 33.8 z"/><circle fill="#221F1F" cx="13.1" cy="33.8" r="2.4"/><path fill="#C3161C" d="M0.1 37.8c0.7 7.4 5.2 12.5 9.6 23.5C13 69.7 3.2 81 6.2 85.6c0.9-2.8 2.9-8.5 5.3-13.6 c4-8.5 9.6-13.5 9.6-13.5s-5.3-0.1-11.1-6c-4.2-4.3-9.1-11.1-9.2-16.4c-0.1-1.8-0.1-3.8 0-5.7C0.1 32.6-0.1 35.1 0.1 37.8z"/></svg>