<svg fill="#ec1c24" xmlns="http://www.w3.org/2000/svg" width="60" height="60" viewBox="0 0 928 928">
  <path d="M700.5,928c-17.7,0-32-14.3-32-32c0-66-92.3-121.7-201.5-121.7c-109.2,0-201.5,55.7-201.5,121.7c0,17.7-14.3,32-32,32s-32-14.3-32-32c0-27,7.9-52.9,23.4-77.1c14.2-22.1,34.2-41.7,59.4-58.3c49.3-32.4,114.1-50.3,182.7-50.3c68.5,0,133.4,17.9,182.7,50.3c25.2,16.6,45.2,36.2,59.4,58.3c15.5,24.2,23.4,50.1,23.4,77.1C732.5,913.7,718.2,928,700.5,928z"/>
  <path d="M895.2,925.9c-17.7,0-32-14.3-32-32c0-17.2-34.6-42.7-82.5-42.7c-17.7,0-32-14.3-32-32s14.3-32,32-32c36.1,0,71,9.8,98.1,27.7c30.7,20.2,48.3,49,48.3,79C927.2,911.5,912.8,925.9,895.2,925.9z"/>
  <path d="M32.8,924.9c-17.7,0-32-14.3-32-32c0-30,17.6-58.8,48.3-79c27.2-17.8,62-27.7,98.1-27.7c17.7,0,32,14.3,32,32s-14.3,32-32,32c-47.9,0-82.5,25.5-82.5,42.7C64.8,910.6,50.5,924.9,32.8,924.9z"/>
  <path d="M306,460.8l17.9,91.5c30,155.5,261,155.7,291,0l17.8-92.3l0.1-0.7c6.1-44.2-7.4-88.8-36.8-122.3c-29.3-33.7-71.6-53-116.3-53h-21.1c-44.6,0-87,19.3-116.2,53.1c-29.5,34-42.8,79-36.4,123.4V460.8z M391.2,378.7c17-19.5,41.8-30.7,68-30.7h21.1c26,0,50.8,11.2,68.1,30.8c16.8,19,24.9,45.1,21.7,70.1L552,539.7c-17.1,87.9-148,89.1-164.7,0L370,450C366.3,424.8,374,398.8,391.2,378.7z"/>
  <path d="M871.4,529.1c-21.1-24.2-51.6-38.1-83.7-38.1h-13.8c-32.2,0-62.6,13.9-83.6,38.2c-21.1,24.3-30.6,56.3-26.3,88v0.5l11.9,60.8C687.2,736.9,736.8,763,781,763c0,0,0,0,0,0c44.2,0,93.8-26.1,105-84.5l11.6-60.4l0.2-1C902.2,585.3,892.5,553.3,871.4,529.1z M824.4,569.8c9,10.2,13.4,24.3,11.8,37.7l-11.8,59.2c-4.8,24.4-25.7,35.4-44.5,35.4c-0.1,0-0.1,0-0.2,0c-17.1-0.1-38.7-9.3-43.6-35.4l-11.3-58.5c-1.9-13.6,2.3-27.6,11.6-38.5c9.2-10.6,22.7-16.6,37-16.6h13.8C801.5,553,815,559.1,824.4,569.8z"/>
  <path d="M238.4,529.1c-21.1-24.2-51.6-38.1-83.7-38.1h-13.8c-32.2,0-62.6,13.9-83.6,38.2c-21.1,24.3-30.6,56.3-26.3,88v0.5l11.9,60.8C54.2,736.9,103.8,763,148,763c0,0,0,0,0,0c44.2,0,93.8-26.1,105-84.5l11.6-60.4l0.2-1C269.2,585.3,259.5,553.3,238.4,529.1z M191.1,569.8c9,10.2,13.4,24.3,11.8,37.7l-11.8,59.2c-4.8,24.4-25.7,35.4-44.5,35.4c-0.1,0-0.1,0-0.2,0c-17.1-0.1-38.7-9.3-43.6-35.4l-11.3-58.5c-1.9-13.6,2.3-27.6,11.6-38.5c9.2-10.6,22.7-16.6,37-16.6H154C168.1,553,181.7,559.1,191.1,569.8z"/>
  <path d="M192.8,374.1c-1.9-1.9-2.9-4.3-2.9-6.9s1-4.9,2.9-6.7l32.9-32.9c4.8-4.8,7.5-11.2,7.4-18.1c0-6.8-2.7-13.1-7.4-17.8c-4.7-4.7-11.4-7.1-18-7.4c0,0-13,3.3-17.7,8l-32.6,32.5c-1.9,1.9-4.2,2.8-6.8,2.8l0,0c-2.5,0-4.8-1-6.7-2.8l-32.6-32.6c-4.7-4.7-17.8-7.2-17.8-7.2h-0.3c-6.7,0-13.1,2.6-17.8,7.3c-4.8,4.8-7.5,11.2-7.4,18c0,6.7,2.6,13,7.4,17.7l32.6,32.6c1.9,1.9,2.8,4.2,2.8,6.8c0,2.5-1,4.8-2.8,6.6l-36.9,36.9c-4.8,4.8-7.5,11.2-7.4,18c0,6.7,2.6,13,7.4,17.7c4.8,4.8,11.1,7.4,17.8,7.4h0.1c0,0,13.1-3,17.7-7.8l36.9-36.9c1.9-1.9,4.2-2.8,6.8-2.8s4.8,1,6.7,2.8l36.8,36.8c4.8,4.8,17.9,7.9,17.9,7.9h0c6.8,0,13.1-2.7,17.8-7.4c4.8-4.8,7.5-11.2,7.4-18.1c0-6.8-2.7-13.1-7.4-17.8L192.8,374.1z"/>
  <path d="M825.8,374.1c-1.9-1.9-2.9-4.3-2.9-6.9s1-4.9,2.9-6.7l32.9-32.9c4.8-4.8,7.5-11.2,7.4-18.1c0-6.8-2.7-13.1-7.4-17.8c-4.7-4.7-11.4-7.1-18-7.4c0,0-13,3.3-17.7,8l-32.6,32.5c-1.9,1.9-4.2,2.8-6.8,2.8l0,0c-2.5,0-4.8-1-6.7-2.8l-32.6-32.6c-4.7-4.7-17.8-7.2-17.8-7.2h-0.3c-6.7,0-13.1,2.6-17.8,7.3c-4.8,4.8-7.5,11.2-7.4,18c0,6.7,2.6,13,7.4,17.7l32.6,32.6c1.9,1.9,2.8,4.2,2.8,6.8c0,2.5-1,4.8-2.8,6.6l-36.9,36.9c-4.8,4.8-7.5,11.2-7.4,18c0,6.7,2.6,13,7.4,17.7c4.8,4.8,11.1,7.4,17.8,7.4h0.1c0,0,13.1-3,17.7-7.8l36.9-36.9c1.9-1.9,4.2-2.8,6.8-2.8c2.5,0,4.8,1,6.7,2.8l36.8,36.8c4.8,4.8,17.9,7.9,17.9,7.9h0c6.8,0,13.1-2.7,17.8-7.4c4.8-4.8,7.5-11.2,7.4-18.1c0-6.8-2.7-13.1-7.4-17.8L825.8,374.1z"/>
  <path fill="#8bc53f" d="M624.4,35.4c-11.3-11.3-29.7-11.3-41,0L476.3,142.5c-6.4,6.4-16.9,6.4-23.3,0l-34.9-34.9c-11.8-11.8-31.1-11.8-42.9,0l0,0c-11.8,11.8-11.8,31.1,0,42.9l68.5,68.5c11.8,11.8,31.1,11.8,42.9,0l2.1-2.1c1.4-1.4,2.3-2.7,3.3-4.1L625.4,79.4c11.8-11.8,11.8-31.1,0-42.9L624.4,35.4z"/>
</svg>
