<svg fill="#ec1c24" xmlns="http://www.w3.org/2000/svg" viewBox="0 0 928 928">
	<path id ="svg" d="M730.5,583.4l183.1-180c12.5-12.9,17.4-33.6,12.5-54.4c-5-18.1-22.4-33.6-39.9-36.2l-245.7-36.1c-0.6-0.1-1.2-0.2-1.8-0.4c-9.2-2.6-16.1-7.4-18.8-14.5c-0.2-0.5-0.4-1-0.6-1.5L510.1,30.7c-15.3-37.2-74.2-37.5-89.7,0L311.3,260.1c-0.3,0.6-0.6,1.2-1,1.8c-5,7.5-12.2,14.6-19.4,14.6L45.2,312.7c-0.6,0.1-1.2,0.2-1.9,0.4c-38.2,10.6-58.9,59.2-29,90.3l176.9,181.2c7.4,7.7,9.9,15.3,7.6,25.5c-0.1,0.3-0.1,0.5-0.2,0.8l-42.3,253.2c-2.5,20.7,5,38.8,19.9,51.8c12.9,13.5,38.3,12.8,53.4,4.6l217.6-118.2c0.4-0.2,0.7-0.4,1.1-0.7c8-5.2,17.2-3.5,24.9,0.7l218.1,118.5c0.4,0.2,0.7,0.4,1.1,0.7c15.1,9.9,38.6,4.7,51.8-5.5c14.9-10.4,22.4-31.1,19.9-51.8l-42.3-253.6c-2.3-9.7,1.9-17.1,6.5-24.4C729,585.1,729.7,584.2,730.5,583.4z M674.6,549.5c-7.3,11.3-24,37.5-16.6,73.3l32.7,195.6c2.1,12.5-11.2,22-22.3,15.9L505.8,746c-27.6-17.1-63.5-17.1-91.1,0l-162.5,88.2c-11.2,6.1-24.4-3.4-22.3-15.9l32.6-195.5c6.5-30.7-2.1-60.2-24.5-83.4l-0.2-0.2l-0.2-0.2l-140.6-144c-8.7-8.9-3.6-23.9,8.7-25.7l191.9-28.2c26.3-2.4,50.7-18.5,67.7-45.1l86.3-180.4c0.1-0.1,2.1-3,2.1-3c6-6.8,16.6-6.7,22.5,0l2.3,3.5c0,0,0,0,0,0h0l81,170.3c10.4,26,33.2,45.2,63.5,53.1l197.8,29.4c12.5,1.8,17.5,17.1,8.5,26L674.6,549.5z"/>
	<text x="50%" y="55%" dominant-baseline="middle" text-anchor="middle" style="fill: #8bc53f; font-family: 'Arial Black';font-size: 150px;">TOP</text>
</svg>
