<svg fill="#ec1c24" xmlns="http://www.w3.org/2000/svg" width="60" height="60" viewBox="0 0 37.3 37.3">
  <path fill="#8bc53f" d="M25.7,12.1c-0.4,0-0.8,0.2-1,0.4l-6.8,7.5c-0.2,0.2-0.5,0.4-0.9,0.4c-0.3,0-0.6-0.1-0.8-0.3l-2.9-2.7c-0.3-0.2-0.6-0.4-0.9-0.4c-0.4,0-0.7,0.1-1,0.4c-0.5,0.5-0.5,1.4,0,1.9l5,4.8c0.2,0.2,0.4,0.3,0.7,0.3c0.3,0,0.5-0.1,0.7-0.3l8.8-9.8c0.5-0.6,0.5-1.4-0.1-1.9C26.4,12.2,26.1,12.1,25.7,12.1z"/>
  <path d="M30.7,4.8c-3.6-0.6-6.9-2.6-8.5-3.7C21.1,0.4,19.9,0,18.7,0s-2.5,0.4-3.5,1.1c-1.6,1.1-4.9,3.1-8.5,3.7C4.5,5.2,3,6.9,3,9v8.9c0,2.9,0.8,5.7,2.4,8.4c1.3,2.1,3,4.1,5.2,6c3.7,3.1,7.3,4.8,7.5,4.8c0,0,0.3,0.1,0.6,0.1s0.6-0.1,0.6-0.1c0.2-0.1,3.8-1.7,7.5-4.8c2.2-1.9,3.9-3.9,5.2-6c1.6-2.7,2.4-5.5,2.4-8.4V9C34.3,6.9,32.8,5.2,30.7,4.8z M31.5,17.9c0,4.4-2.2,8.5-6.6,12.3c-1.3,1.1-2.8,2.2-4.3,3.1c-0.6,0.4-1.3,0.5-2,0.5c-0.7,0-1.4-0.2-2-0.5c-4.1-2.5-10.9-7.7-10.9-15.4V9c0-0.8,0.5-1.4,1.3-1.5c4.1-0.7,7.8-2.9,9.6-4.1c0.6-0.4,1.3-0.6,2-0.6c0.7,0,1.4,0.2,2,0.6c1.8,1.2,5.5,3.4,9.6,4.1C31,7.6,31.5,8.3,31.5,9V17.9z"/>
</svg>
